<svg xmlns="http://www.w3.org/2000/svg" viewBox="0 0 1200 560" font-family="'Segoe UI',Roboto,Helvetica,Arial,sans-serif">
  <defs>
    <marker id="arr" markerWidth="9" markerHeight="9" refX="7" refY="3" orient="auto"><path d="M0,0 L7,3 L0,6 Z" fill="#8b949e"/></marker>
    <marker id="arrG" markerWidth="9" markerHeight="9" refX="7" refY="3" orient="auto"><path d="M0,0 L7,3 L0,6 Z" fill="#3fb950"/></marker>
    <marker id="arrR" markerWidth="9" markerHeight="9" refX="7" refY="3" orient="auto"><path d="M0,0 L7,3 L0,6 Z" fill="#f0883e"/></marker>
  </defs>
  <rect width="1200" height="560" fill="#0d1117"/>
  <text x="40" y="50" fill="#e6edf3" font-size="29" font-weight="800">Pipeline de compressão — seguro por construção</text>
  <text x="40" y="80" fill="#8b949e" font-size="15.5">Toda reescrita passa por uma porta de validação. Quebrou um invariante → repara 1x → senão volta ao resultado local seguro. Zero corrupção.</text>

  <!-- secret scan gate -->
  <rect x="40" y="120" width="150" height="58" rx="10" fill="#1d1416" stroke="#88313a"/>
  <text x="115" y="146" fill="#ff9aa3" font-size="13.5" font-weight="700" text-anchor="middle">secret-scan</text>
  <text x="115" y="165" fill="#c9d3de" font-size="11.5" text-anchor="middle">tem segredo? aborta</text>

  <!-- input -->
  <rect x="40" y="220" width="150" height="62" rx="10" fill="#161b22" stroke="#2d333b"/>
  <text x="115" y="246" fill="#e6edf3" font-size="13.5" font-weight="700" text-anchor="middle">doc / CLAUDE.md</text>
  <text x="115" y="266" fill="#8b949e" font-size="11.5" text-anchor="middle">prosa + código</text>
  <line x1="115" y1="178" x2="115" y2="220" stroke="#8b949e" stroke-width="1.6" marker-end="url(#arr)"/>

  <!-- split -->
  <rect x="230" y="220" width="150" height="62" rx="10" fill="#161b22" stroke="#2d333b"/>
  <text x="305" y="245" fill="#e6edf3" font-size="13" font-weight="700" text-anchor="middle">split prosa / código</text>
  <text x="305" y="265" fill="#8b949e" font-size="11.5" text-anchor="middle">código → verbatim</text>
  <line x1="190" y1="251" x2="230" y2="251" stroke="#8b949e" stroke-width="1.6" marker-end="url(#arr)"/>

  <!-- protect -->
  <rect x="420" y="220" width="150" height="62" rx="10" fill="#161b22" stroke="#2d333b"/>
  <text x="495" y="245" fill="#e6edf3" font-size="13" font-weight="700" text-anchor="middle">protege spans</text>
  <text x="495" y="265" fill="#8b949e" font-size="11" text-anchor="middle">code·URL·path·nº·id</text>
  <line x1="380" y1="251" x2="420" y2="251" stroke="#8b949e" stroke-width="1.6" marker-end="url(#arr)"/>

  <!-- compress -->
  <rect x="610" y="220" width="160" height="62" rx="10" fill="#11201a" stroke="#2c5d40"/>
  <text x="690" y="245" fill="#7ee2a8" font-size="13" font-weight="700" text-anchor="middle">regras locais</text>
  <text x="690" y="265" fill="#8b949e" font-size="11" text-anchor="middle">+ LLM opt-in (gate 0.35)</text>
  <line x1="570" y1="251" x2="610" y2="251" stroke="#8b949e" stroke-width="1.6" marker-end="url(#arr)"/>

  <!-- validate gate -->
  <polygon points="900,251 850,206 800,251 850,296" fill="#221a14" stroke="#7a5a2f"/>
  <text x="850" y="247" fill="#f0b860" font-size="13" font-weight="700" text-anchor="middle">VALIDA</text>
  <text x="850" y="265" fill="#9da7b3" font-size="10" text-anchor="middle">headings·code·nº·list</text>
  <line x1="770" y1="251" x2="800" y2="251" stroke="#8b949e" stroke-width="1.6" marker-end="url(#arr)"/>

  <!-- pass -->
  <rect x="980" y="220" width="180" height="62" rx="10" fill="#11201a" stroke="#3fb950"/>
  <text x="1070" y="245" fill="#3fb950" font-size="13.5" font-weight="700" text-anchor="middle">output + backup</text>
  <text x="1070" y="265" fill="#8b949e" font-size="11" text-anchor="middle">.caveman/ restaurável</text>
  <line x1="900" y1="251" x2="980" y2="251" stroke="#3fb950" stroke-width="1.8" marker-end="url(#arrG)"/>
  <text x="938" y="242" fill="#3fb950" font-size="11" font-weight="700">ok</text>

  <!-- repair branch -->
  <rect x="760" y="370" width="180" height="58" rx="10" fill="#1d1622" stroke="#5d3a6b"/>
  <text x="850" y="395" fill="#d2a8e8" font-size="13" font-weight="700" text-anchor="middle">repara 1x</text>
  <text x="850" y="414" fill="#8b949e" font-size="11" text-anchor="middle">prompt cita o invariante</text>
  <line x1="850" y1="296" x2="850" y2="370" stroke="#f0883e" stroke-width="1.8" marker-end="url(#arrR)"/>
  <text x="858" y="335" fill="#f0883e" font-size="11" font-weight="700">falhou</text>

  <!-- fallback -->
  <rect x="420" y="370" width="200" height="58" rx="10" fill="#161b22" stroke="#2d333b"/>
  <text x="520" y="395" fill="#e6edf3" font-size="13" font-weight="700" text-anchor="middle">fallback → local seguro</text>
  <text x="520" y="414" fill="#8b949e" font-size="11" text-anchor="middle">menos economia, nunca menos correção</text>
  <line x1="760" y1="399" x2="620" y2="399" stroke="#f0883e" stroke-width="1.8" marker-end="url(#arrR)"/>
  <text x="668" y="390" fill="#f0883e" font-size="11" font-weight="700">falhou de novo</text>
  <path d="M520,370 L520,300 Q520,251 850,251" fill="none" stroke="#3fb950" stroke-width="1.4" stroke-dasharray="4 4"/>

  <text x="40" y="520" fill="#6e7681" font-size="12.5">Garantias: code/URLs/paths/números/ids/datas/erros byte-idênticos · segredos nunca vão a um LLM · --local-only sem rede · --check não escreve · --restore desfaz.</text>
</svg>
